{
  "accessors": [
    {
      "bufferView": 0,
      "componentType": 5126,
      "count": 368,
      "type": "VEC3",
      "max": [
        0.98361778259277344,
        2.8442940711975098,
        0.973762035369873
      ],
      "min": [
        -0.96623790264129639,
        0.0038495063781738281,
        -0.92720693349838257
      ]
    },
    {
      "bufferView": 1,
      "componentType": 5126,
      "count": 368,
      "type": "VEC3",
      "max": [
        0.98224616050720215,
        1.0,
        0.93417161703109741
      ],
      "min": [
        -0.98224616050720215,
        -1.0,
        -1.0
      ]
    },
    {
      "bufferView": 2,
      "componentType": 5126,
      "count": 368,
      "type": "VEC4",
      "max": [
        1.0,
        0.0,
        0.0,
        -1.0
      ],
      "min": [
        1.0,
        0.0,
        0.0,
        -1.0
      ]
    },
    {
      "bufferView": 3,
      "componentType": 5125,
      "count": 552,
      "type": "SCALAR",
      "max": [
        367.0
      ],
      "min": [
        0.0
      ]
    }
  ],
  "asset": {
    "generator": "UnityGLTF (2018.4.21f1)",
    "version": "2.0"
  },
  "buffers": [
    {
      "uri": "Unity2Skfb.bin",
      "byteLength": 16928
    }
  ],
  "bufferViews": [
    {
      "buffer": 0,
      "byteLength": 4416
    },
    {
      "buffer": 0,
      "byteOffset": 4416,
      "byteLength": 4416
    },
    {
      "buffer": 0,
      "byteOffset": 8832,
      "byteLength": 5888
    },
    {
      "buffer": 0,
      "byteOffset": 14720,
      "byteLength": 2208
    }
  ],
  "materials": [
    {
      "pbrMetallicRoughness": {
        "baseColorFactor": [
          0.882352948,
          0.882352948,
          0.882352948,
          1.0
        ],
        "metallicFactor": 0.25,
        "roughnessFactor": 0.81999999284744263
      },
      "name": "White"
    }
  ],
  "meshes": [
    {
      "primitives": [
        {
          "attributes": {
            "POSITION": 0,
            "NORMAL": 1,
            "TANGENT": 2
          },
          "indices": 3,
          "material": 0
        }
      ],
      "name": "pawn white (1)"
    }
  ],
  "nodes": [
    {
      "mesh": 0,
      "rotation": [
        0.0,
        0.7071068,
        0.0,
        -0.7071068
      ],
      "scale": [
        1.00000024,
        1.0,
        1.00000024
      ],
      "translation": [
        -6.38,
        1.46,
        6.36
      ],
      "name": "pawn white (1)"
    }
  ],
  "scene": 0,
  "scenes": [
    {
      "nodes": [
        0
      ],
      "name": "Unity2Skfb"
    }
  ]
}